HIERARCHY
ROOT Bip001_Pelvis
{
  OFFSET 34.4345 95.6767 -26.8758
  CHANNELS 6 Xposition Yposition Zposition Zrotation Xrotation Yrotation
  JOINT Bip001_Spine
  {
    OFFSET 1.4188e-005 10.2191 -0.0116013
    CHANNELS 3 Zrotation Xrotation Yrotation
    JOINT Bip001_L_Thigh
    {
      OFFSET 11.0458 -10.2192 0.0116197
      CHANNELS 3 Zrotation Xrotation Yrotation
      JOINT Bip001_L_Calf
      {
        OFFSET -0.707118 -44.0221 0.360014
        CHANNELS 3 Zrotation Xrotation Yrotation
        JOINT Bip001_L_Foot
        {
          OFFSET -0.651902 -40.5938 -3.56146
          CHANNELS 3 Zrotation Xrotation Yrotation
          JOINT Bip001_L_Toe0
          {
            OFFSET 0.0530839 -10.2181 13.1504
            CHANNELS 3 Zrotation Xrotation Yrotation
            End Site
            {
              OFFSET -1.02532e-005 0 7.55606
            }
          }
        }
      }
    }
    JOINT Bip001_R_Thigh
    {
      OFFSET -11.0458 -10.2191 0.0115893
      CHANNELS 3 Zrotation Xrotation Yrotation
      JOINT Bip001_R_Calf
      {
        OFFSET 0.706994 -44.0221 0.35984
        CHANNELS 3 Zrotation Xrotation Yrotation
        JOINT Bip001_R_Foot
        {
          OFFSET 0.651786 -40.5938 -3.5613
          CHANNELS 3 Zrotation Xrotation Yrotation
          JOINT Bip001_R_Toe0
          {
            OFFSET -0.0531479 -10.2181 13.1504
            CHANNELS 3 Zrotation Xrotation Yrotation
            End Site
            {
              OFFSET -1.02894e-005 0 7.55606
            }
          }
        }
      }
    }
    JOINT Bip001_Spine1
    {
      OFFSET 1.87041e-005 14.5736 1.08638
      CHANNELS 3 Zrotation Xrotation Yrotation
      JOINT Bip001_Spine2
      {
        OFFSET 2.24614e-005 14.5058 -1.69078
        CHANNELS 3 Zrotation Xrotation Yrotation
        JOINT Bip001_Neck
        {
          OFFSET 2.20278e-005 15.3945 -0.489414
          CHANNELS 3 Zrotation Xrotation Yrotation
          JOINT Bip001_L_Clavicle
          {
            OFFSET 6.06036 -0.000579998 0.00836775
            CHANNELS 3 Zrotation Xrotation Yrotation
            JOINT Bip001_L_UpperArm
            {
              OFFSET 11.5509 -0.0600302 0.00193952
              CHANNELS 3 Zrotation Xrotation Yrotation
              JOINT Bip001_L_Forearm
              {
                OFFSET 25.9523 0.0806089 -2.15551
                CHANNELS 3 Zrotation Xrotation Yrotation
                JOINT Bip001_L_Hand
                {
                  OFFSET 32.2475 0.153767 1.63968
                  CHANNELS 3 Zrotation Xrotation Yrotation
                  JOINT Bip001_L_Finger0
                  {
                    OFFSET 6.04639 -2.20976 5.90322
                    CHANNELS 3 Zrotation Xrotation Yrotation
                    End Site
                    {
                      OFFSET 4.22375 -1.43895 0.606485
                    }
                  }
                  JOINT Bip001_L_Finger1
                  {
                    OFFSET 11.0826 -0.704819 -0.198153
                    CHANNELS 3 Zrotation Xrotation Yrotation
                    End Site
                    {
                      OFFSET 6.20027 -0.397518 -0.0787166
                    }
                  }
                }
              }
            }
          }
          JOINT Bip001_R_Clavicle
          {
            OFFSET -6.06037 -0.000563197 0.00835105
            CHANNELS 3 Zrotation Xrotation Yrotation
            JOINT Bip001_R_UpperArm
            {
              OFFSET -11.5509 -0.0599978 0.00190698
              CHANNELS 3 Zrotation Xrotation Yrotation
              JOINT Bip001_R_Forearm
              {
                OFFSET -25.9523 0.0806822 -2.15589
                CHANNELS 3 Zrotation Xrotation Yrotation
                JOINT Bip001_R_Hand
                {
                  OFFSET -32.2475 0.153859 1.63989
                  CHANNELS 3 Zrotation Xrotation Yrotation
                  JOINT Bip001_R_Finger0
                  {
                    OFFSET -6.04641 -2.20976 5.90317
                    CHANNELS 3 Zrotation Xrotation Yrotation
                    End Site
                    {
                      OFFSET -4.22376 -1.43895 0.60647
                    }
                  }
                  JOINT Bip001_R_Finger1
                  {
                    OFFSET -11.0826 -0.704794 -0.198182
                    CHANNELS 3 Zrotation Xrotation Yrotation
                    End Site
                    {
                      OFFSET -6.20028 -0.397504 -0.0787333
                    }
                  }
                }
              }
            }
          }
          JOINT Bip001_Head
          {
            OFFSET 1.09673e-005 11.2744 2.05948
            CHANNELS 3 Zrotation Xrotation Yrotation
            End Site
            {
              OFFSET 2.89576e-005 20.8808 -2.77728e-005
            }
          }
        }
      }
    }
  }
}
MOTION
Frames:	11
Frame Time:	0.04
33.0067 95.9103 -28.9259 -0.878751 1.02551 5.77019 -0.416989 1.64576 1.12283 7.29516 -6.30173 5.13879 -2.08584 9.62395 -10.2513 3.66639 -4.44486 -0.0236785 0.973589 -4.37151 -0.456674 -1.01972 -3.05938 -1.70643 -0.660173 8.9924 -0.318721 -6.82527 -7.60521 -2.13436 2.4476 -8.17272 2.44644 -0.86467 3.29907 2.26027 -0.865818 3.29904 2.25959 1.44571 -10.4901 -6.02737 -26.0109 9.88628 3.40783 -56.5552 44.1658 8.60851 15.8228 -9.16149 -27.2531 7.77995 1.37542 -0.910677 -9.54166e-015 3.18055e-015 -0 -1.11319e-014 0 -0 5.76961 15.4125 27.7372 93.5386 -57.5164 94.8505 -79.2872 3.20321 111.457 -50.8707 -18.8697 -22.4421 -5.29669e-031 -6.36111e-015 -4.77083e-015 3.18055e-015 -9.54167e-015 -4.77083e-015 -1.28224 -4.4225 -5.26451 
32.8683 95.9076 -28.887 -1.10339 1.15644 6.28114 -0.425183 1.64544 1.18098 7.63941 -6.71146 5.40477 -2.06443 9.98361 -11.0306 3.43799 -4.6513 -0.0147707 0.876806 -4.28952 -0.401738 -0.622957 -3.02398 -1.97941 -0.795276 8.77305 -0.383933 -6.87535 -7.45573 -2.33724 2.45408 -8.17825 2.43735 -0.884536 3.27464 2.37556 -0.884541 3.27465 2.37557 1.16592 -10.1567 -6.26231 -25.7772 9.52549 3.4612 -56.1724 44.7082 8.35773 15.622 -9.67771 -27.2721 7.81201 1.4912 -0.751269 9.54166e-015 0 -3.18055e-015 7.95139e-015 -6.36111e-015 -0 3.67816 14.6334 30.1856 92.2108 -54.9622 97.3385 -85.8055 4.0621 110.298 -50.9551 -20.1779 -26.3873 3.18055e-015 0 1.59028e-015 -0 0 1.59028e-015 -0.839236 -4.98706 -5.64348 
32.7016 95.9079 -28.8355 -1.33598 1.22652 6.81661 -0.406248 1.65193 1.22816 8.08176 -7.0691 5.72553 -2.13667 10.3481 -11.7577 2.22368 -5.25559 0.0112076 0.552153 -3.71166 -0.107983 -0.224161 -2.91653 -2.23005 -0.920186 8.48504 -0.425444 -6.95118 -7.2657 -2.58098 2.45622 -8.17886 2.43643 -0.842548 3.29472 2.46928 -0.8434 3.29477 2.46931 0.850868 -10.1982 -6.3941 -25.6396 9.48653 3.79033 -55.9724 45.2466 8.23422 15.7392 -10.0287 -27.4129 7.76476 1.4479 -0.63463 3.18055e-015 -3.18055e-015 -0 -0 -6.36111e-015 -0 1.56101 14.0384 32.054 89.2796 -51.8367 97.9733 -91.6141 6.08823 108.759 -51.252 -21.2697 -29.5605 -3.18055e-015 -6.36111e-015 -1.59028e-015 -3.18055e-015 -3.18056e-015 -0 -0.584578 -5.24886 -5.89034 
32.5184 95.9127 -28.7552 -1.61542 1.26566 7.41464 -0.408453 1.61515 1.334 8.55085 -7.40382 5.87464 -2.26755 10.7181 -12.4385 2.86947 -5.20062 0.0123418 0.742079 -3.90344 -0.34482 0.293556 -2.66459 -2.6391 -1.10252 8.07791 -0.368486 -7.05476 -7.02964 -2.87714 2.46074 -8.20956 2.44607 -0.852095 3.22039 2.68099 -0.853152 3.22039 2.681 0.799189 -10.2335 -6.86059 -25.4679 9.31659 4.30042 -56.3972 45.953 8.63798 15.9991 -10.6519 -27.665 7.73676 1.62785 -0.396542 -4.77083e-015 -6.36111e-015 3.18055e-015 5.29669e-031 -9.54167e-015 3.18055e-015 -0.329695 13.4893 33.7149 85.4932 -48.8344 97.5816 -96.7584 9.12911 107.341 -51.6989 -21.8774 -32.21 -6.36111e-015 0 -0 -0 -3.18056e-015 -0 -0.452082 -5.44749 -6.37354 
32.3838 95.9072 -28.6876 -1.85427 1.3034 8.01915 -0.40991 1.54741 1.4449 8.93395 -7.69353 5.87057 -2.32472 11.075 -13.0193 2.49528 -5.50723 0.0115661 0.697082 -3.70968 -0.29576 0.707244 -2.45114 -3.00486 -1.21522 7.80572 -0.384388 -7.16989 -6.86818 -3.17151 2.46149 -8.18607 2.44651 -0.859231 3.08399 2.90173 -0.860508 3.08392 2.90217 0.795538 -10.2805 -7.27337 -25.4852 9.11657 4.92086 -56.7423 46.7795 9.1793 16.1211 -11.292 -28.013 7.76114 1.80262 -0.112762 9.54166e-015 -9.54166e-015 3.18055e-015 4.77083e-015 -6.36111e-015 -0 -1.93309 12.9939 35.1298 76.8265 -45.6135 92.9955 -98.171 13.4312 102.764 -50.901 -20.276 -33.1687 -3.18055e-015 -3.18055e-015 -0 -0 -3.18056e-015 -0 -0.33391 -5.24678 -6.79043 
32.2938 95.8864 -28.5798 -1.74353 1.22042 8.49563 -0.45335 1.54556 1.52635 8.93802 -7.65733 7.0598 -2.13768 11.1366 -14.771 2.99277 -5.33007 0.00636827 0.853225 -3.87954 -0.409471 0.762081 -2.38183 -3.5513 -1.32423 8.11711 -0.332344 -7.18921 -7.06601 -3.21028 2.46237 -8.19958 2.43622 -0.945635 3.07853 3.06567 -0.946387 3.07854 3.06596 0.773454 -10.1467 -7.56445 -25.6473 8.83611 5.22652 -57.0127 47.0991 9.81922 16.3441 -11.812 -28.4526 7.84765 1.80461 0.0864152 3.18055e-015 3.18055e-015 -3.18055e-015 6.36111e-015 3.18056e-015 -6.36111e-015 -3.34555 12.3578 36.7387 62.0704 -40.9685 84.1358 -93.6651 18.3461 92.241 -48.6989 -16.5847 -31.5713 -6.36111e-015 3.18055e-015 1.59028e-015 -6.36111e-015 3.18056e-015 1.59028e-015 -0.22404 -5.33846 -7.0964 
32.1597 95.8937 -28.4884 -1.9151 1.29825 8.90457 -0.455275 1.55699 1.56327 9.26975 -7.83743 6.21285 -2.33903 11.1373 -14.2311 1.48928 -5.87691 0.0281576 0.377413 -3.25818 -0.0421455 1.08544 -2.22011 -3.89517 -1.43422 7.71337 -0.277048 -7.26436 -6.92215 -3.30973 2.43846 -8.19619 2.51462 -0.953415 3.10092 3.14061 -0.953414 3.10091 3.1406 0.537455 -10.3497 -7.72026 -25.6403 8.95368 5.52837 -56.9299 47.1715 9.98995 16.4249 -12.2515 -28.6882 8.28002 1.64386 0.227627 3.18055e-015 -3.18055e-015 -6.36111e-015 3.18055e-015 -3.18056e-015 -3.18055e-015 -4.07014 12.3214 38.7565 45.5048 -34.939 75.2146 -78.9845 19.4587 75.8316 -46.2281 -8.21465 -24.7256 -7.95139e-015 3.18055e-015 4.77083e-015 -6.36111e-015 3.18056e-015 4.77083e-015 0.213934 -5.33881 -7.37371 
32.0252 95.8717 -28.3891 -2.10292 1.27501 9.11404 -0.441777 1.57022 1.63094 9.60855 -8.02282 6.74132 -2.37422 11.4876 -14.9896 1.91253 -5.90183 0.0319415 0.533781 -3.41331 -0.200827 1.42339 -2.12185 -3.88969 -1.50949 7.58558 -0.298783 -7.35481 -6.8525 -3.52753 2.44208 -8.1355 2.41179 -0.931436 3.12707 3.2759 -0.930099 3.12713 3.27597 0.457173 -10.6951 -7.90719 -25.4665 9.12698 6.11693 -57.4716 47.5701 10.2379 16.5497 -12.7987 -28.8159 8.18769 1.65278 0.482358 -4.77083e-015 0 9.54166e-015 -0 0 6.36111e-015 -4.89207 12.3617 40.2291 27.7848 -26.0422 67.3031 -50.6302 3.03449 54.5201 -46.063 11.9846 -6.64404 -3.18055e-015 -3.18055e-015 -0 -3.18055e-015 -3.18056e-015 1.59028e-015 0.381069 -5.17257 -7.59183 
31.9055 95.8861 -28.3494 -2.20482 1.39144 9.44107 -0.46754 1.54776 1.7159 9.79977 -8.23775 5.41228 -2.60818 11.4472 -13.9166 1.46834 -6.06847 0.0323119 0.4441 -3.17193 -0.152134 1.63281 -2.14272 -4.13906 -1.54347 7.46593 -0.349702 -7.3688 -6.75944 -3.61506 2.43255 -8.11092 2.40302 -0.979428 3.08184 3.44647 -0.980534 3.08188 3.44627 0.827317 -10.8525 -8.25648 -25.8027 9.06959 6.49294 -57.8946 47.9505 10.6385 16.5861 -13.2226 -28.9522 7.87601 1.75889 0.710387 -4.77083e-015 6.36111e-015 -6.36111e-015 -6.36111e-015 9.54167e-015 -6.36111e-015 -6.26387 12.0346 41.4469 15.438 -18.069 64.2907 -34.987 -21.5275 43.7305 -51.9318 22.4056 6.8152 -7.95139e-016 6.36111e-015 7.95139e-016 -7.95139e-016 9.54167e-015 -0 0.340277 -5.14222 -7.84944 
31.8041 95.8983 -28.2927 -2.43113 1.48825 9.72872 -0.455345 1.54213 1.80552 10.0187 -8.4807 4.44595 -2.73056 11.4801 -13.2437 1.65276 -5.98076 0.0324688 0.539153 -3.24615 -0.247996 1.94673 -2.00341 -4.63364 -1.64856 6.99223 -0.281215 -7.34172 -6.58387 -3.51456 2.42111 -8.06149 2.3815 -0.960108 3.06897 3.62317 -0.959869 3.06905 3.62406 1.08749 -10.8644 -8.67042 -26.1068 8.93064 6.61253 -57.9163 48.3458 10.8118 16.4186 -13.638 -29.0114 7.75165 1.78195 0.77976 -1.59028e-015 3.18055e-015 -3.18055e-015 -3.18055e-015 3.18056e-015 -0 -6.23321 12.1472 42.0611 16.1407 -18.9989 65.4312 -39.4891 -16.0378 42.6529 -47.7791 16.5499 -1.67705 7.95139e-016 3.18055e-015 3.97569e-016 0 9.54167e-015 -0 0.143658 -5.27154 -8.15188 
31.8388 95.9087 -28.2475 -2.27283 1.49997 9.82401 -0.453051 1.4793 1.83581 9.81716 -8.3286 4.48738 -2.61909 11.3422 -13.171 0.845911 -6.27024 0.0325295 0.37324 -2.71039 -0.174528 1.74491 -1.93564 -5.07801 -1.65587 7.12133 -0.191096 -7.29508 -6.7204 -3.29233 2.41289 -8.04285 2.34507 -0.954335 2.94326 3.68714 -0.954024 2.94327 3.68639 1.42096 -10.3303 -8.84718 -26.1038 8.4542 6.15069 -59.0732 48.2793 11.8363 16.387 -13.6593 -28.9714 8.02585 1.77892 0.74799 6.36111e-015 3.18055e-015 3.18055e-015 3.18055e-015 6.36111e-015 3.18055e-015 -6.57187 11.4313 40.7606 20.7951 -20.5976 67.5158 -34.8008 -16.9775 48.3443 -49.9239 24.672 4.10392 1.59028e-015 9.54166e-015 -7.95139e-016 1.59028e-015 9.54167e-015 -0 -0.526802 -5.15795 -8.1402 
